#!OML:ASF H:\Not Pregnant\Project 1\Capture day 1\Session 1\non-pregnant.ASF
:FULLY-SPECIFIED
:DEGREES
805
root 1.67715 16.0386 22.8126 15.1919 -17.5795 -6.05297
lowerback -5.24967 0.322448 5.22736
upperback -8.23423 0.29942 0.0431266
thorax -5.62278 -0.178513 -2.87524
lowerneck 38.5391 -13.5746 -26.2977
upperneck -30.0857 -23.2666 47.363
head -4.64612 -16.466 29.6193
rclavicle -8.45332e-014 -8.74653e-015
rhumerus -43.3871 -7.49556 -78.4711
rradius 21.4941
rwrist 36.4338
rhand -6.52137 -2.67224
rfingers 7.12502
rthumb 19.3311 -31.7314
lclavicle -8.45332e-014 -8.74653e-015
lhumerus -52.5257 -0.492424 85.908
lradius 33.2486
lwrist 32.4028
lhand -14.7836 -13.3179
lfingers 7.12502
lthumb 11.3735 16.3537
rfemur -30.9522 5.63103 28.7935
rtibia 26.725
rfoot -7.46135 4.96812
rtoes -15.7148
lfemur -6.13368 -0.137119 -14.1007
ltibia 31.2308
lfoot -15.3226 -0.363879
ltoes -45.0022
806
root 1.64523 16.0346 22.8556 15.2388 -17.9425 -6.19691
lowerback -5.30883 0.390089 5.42851
upperback -8.24756 0.381066 0.0128416
thorax -5.59843 -0.150643 -3.01894
lowerneck 38.6012 -13.5539 -26.3166
upperneck -30.0728 -23.2753 47.3436
head -4.65175 -16.469 29.6211
rclavicle -2.54444e-014 1.03368e-014
rhumerus -42.4616 -7.08522 -79.7016
rradius 21.6327
rwrist 36.1375
rhand -6.95526 -2.63029
rfingers 7.12502
rthumb 18.9138 -31.7307
lclavicle -2.54444e-014 1.03368e-014
lhumerus -52.0992 -0.986335 86.5724
lradius 34.1097
lwrist 32.7934
lhand -14.7608 -13.6881
lfingers 7.12502
lthumb 11.3954 15.9822
rfemur -30.7143 5.62618 29.0452
rtibia 26.6993
rfoot -7.7268 5.40611
rtoes -15.3869
lfemur -6.50398 0.162397 -13.9338
ltibia 32.3301
lfoot -15.0012 -0.689589
ltoes -45.0278
807
root 1.61418 16.029 22.8972 15.2726 -18.3069 -6.35569
lowerback -5.33464 0.45292 5.65208
upperback -8.2597 0.458122 -0.012209
thorax -5.59188 -0.126622 -3.16981
lowerneck 38.6561 -13.5257 -26.3518
upperneck -30.0469 -23.2839 47.3213
head -4.64964 -16.4704 29.618
rclavicle -2.85256e-014 -6.36111e-015
rhumerus -41.5488 -6.52064 -81.0117
rradius 21.8599
rwrist 35.7293
rhand -7.33539 -2.60598
rfingers 7.12502
rthumb 18.5482 -31.7417
lclavicle -2.85256e-014 -6.36111e-015
lhumerus -51.6657 -1.46466 87.1922
lradius 34.9542
lwrist 33.0982
lhand -14.7594 -14.0416
lfingers 7.12502
lthumb 11.3968 15.6287
rfemur -30.4725 5.61177 29.3111
rtibia 26.7008
rfoot -8.00092 5.85413
rtoes -15.0241
lfemur -6.90767 0.5236 -13.749
ltibia 33.5142
lfoot -14.6597 -1.04462
ltoes -45.0775
808
root 1.5839 16.0216 22.9376 15.298 -18.6664 -6.52877
lowerback -5.33699 0.512708 5.89893
upperback -8.26614 0.532289 -0.0347822
thorax -5.59251 -0.105371 -3.33126
lowerneck 38.6943 -13.4968 -26.3931
upperneck -30.0116 -23.2924 47.2983
head -4.64024 -16.471 29.6064
rclavicle -3.37934e-015 1.43125e-014
rhumerus -40.6269 -5.88662 -82.3431
rradius 22.1242
rwrist 35.2946
rhand -7.69219 -2.55521
rfingers 7.12502
rthumb 18.205 -31.7233
lclavicle -3.37934e-015 1.43125e-014
lhumerus -51.2123 -1.93656 87.7708
lradius 35.7679
lwrist 33.3264
lhand -14.7868 -14.4091
lfingers 7.12502
lthumb 11.3703 15.2626
rfemur -30.2327 5.57792 29.5933
rtibia 26.7299
rfoot -8.28576 6.31427
rtoes -14.6385
lfemur -7.35198 0.947718 -13.5441
ltibia 34.7859
lfoot -14.2909 -1.43458
ltoes -45.1558
809
root 1.5539 16.0119 22.9776 15.3093 -19.0234 -6.72243
lowerback -5.30236 0.564654 6.16452
upperback -8.26896 0.59881 -0.0454808
thorax -5.61077 -0.0890743 -3.49108
lowerneck 38.7005 -13.4507 -26.4519
upperneck -29.9481 -23.2843 47.2706
head -4.62253 -16.4597 29.5894
rclavicle -4.47266e-014 -3.97569e-015
rhumerus -39.7013 -5.1656 -83.6888
rradius 22.4121
rwrist 34.845
rhand -8.02683 -2.47102
rfingers 7.12502
rthumb 17.883 -31.6688
lclavicle -4.47266e-014 -3.97569e-015
lhumerus -50.7491 -2.37006 88.2982
lradius 36.551
lwrist 33.4588
lhand -14.8412 -14.7885
lfingers 7.12502
lthumb 11.3179 14.8861
rfemur -29.9792 5.52996 29.8987
rtibia 26.7847
rfoot -8.58947 6.78083
rtoes -14.2659
lfemur -7.82236 1.43137 -13.311
ltibia 36.14
lfoot -13.8872 -1.87525
ltoes -45.1855
810
root 1.52407 16.0004 23.0163 15.3086 -19.3846 -6.93043
lowerback -5.2275 0.613054 6.43743
upperback -8.27016 0.664046 -0.0500305
thorax -5.64994 -0.0743014 -3.64897
lowerneck 38.6853 -13.3995 -26.5147
upperneck -29.8689 -23.2685 47.2399
head -4.59986 -16.4428 29.5644
rclavicle 2.03754e-015 -2.62396e-014
rhumerus -38.7801 -4.36327 -85.0475
rradius 22.7289
rwrist 34.3606
rhand -8.34621 -2.36457
rfingers 7.12502
rthumb 17.5757 -31.5901
lclavicle 2.03754e-015 -2.62396e-014
lhumerus -50.2703 -2.79159 88.7844
lradius 37.2915
lwrist 33.5313
lhand -14.9285 -15.1736
lfingers 7.12502
lthumb 11.2337 14.5056
rfemur -29.7188 5.46965 30.2214
rtibia 26.8631
rfoot -8.90557 7.25931
rtoes -13.9182
lfemur -8.32401 1.9709 -13.0552
ltibia 37.5727
lfoot -13.4324 -2.40344
ltoes -44.9877
811
root 1.49411 15.987 23.0548 15.2988 -19.7465 -7.15323
lowerback -5.11879 0.654627 6.7147
upperback -8.27389 0.723815 -0.0438723
thorax -5.71144 -0.0630807 -3.79852
lowerneck 38.6516 -13.3306 -26.5922
upperneck -29.7662 -23.236 47.2018
head -4.57425 -16.4141 29.5373
rclavicle -2.96189e-014 -3.18055e-014
rhumerus -37.8683 -3.47707 -86.408
rradius 23.057
rwrist 33.8474
rhand -8.64553 -2.2574
rfingers 7.12502
rthumb 17.2876 -31.5085
lclavicle -2.96189e-014 -3.18055e-014
lhumerus -49.7806 -3.16943 89.2117
lradius 37.9913
lwrist 33.5562
lhand -15.0023 -15.5299
lfingers 7.12502
lthumb 11.1625 14.1532
rfemur -29.4479 5.39504 30.5616
rtibia 26.9594
rfoot -9.23409 7.74844
rtoes -13.5832
lfemur -8.85014 2.55773 -12.7752
ltibia 39.0727
lfoot -12.9088 -2.9898
ltoes -44.6416
812
root 1.46452 15.9725 23.0919 15.2764 -20.1089 -7.38313
lowerback -4.97859 0.689731 6.99077
upperback -8.26675 0.778224 -0.0337944
thorax -5.77948 -0.054384 -3.94375
lowerneck 38.5848 -13.2655 -26.6612
upperneck -29.6522 -23.1964 47.1615
head -4.54444 -16.3807 29.4957
rclavicle -5.23798e-014 -3.81667e-014
rhumerus -36.9307 -2.54575 -87.7566
rradius 23.3712
rwrist 33.3296
rhand -8.93475 -2.13058
rfingers 7.12502
rthumb 17.0092 -31.4059
lclavicle -5.23798e-014 -3.81667e-014
lhumerus -49.2568 -3.5236 89.5857
lradius 38.6394
lwrist 33.5315
lhand -15.085 -15.9085
lfingers 7.12502
lthumb 11.0827 13.7789
rfemur -29.17 5.30909 30.9098
rtibia 27.0715
rfoot -9.56381 8.24292
rtoes -13.2529
lfemur -9.40501 3.17462 -12.4768
ltibia 40.6297
lfoot -12.2837 -3.66669
ltoes -43.9898
813
root 1.43471 15.9576 23.1285 15.2526 -20.4812 -7.61928
lowerback -4.82243 0.724793 7.25965
upperback -8.26348 0.835406 -0.0153852
thorax -5.86028 -0.04435 -4.07653
lowerneck 38.5214 -13.1792 -26.7544
upperneck -29.5193 -23.1456 47.1176
head -4.51217 -16.3393 29.4638
rclavicle 7.7526e-015 -2.46493e-014
rhumerus -36.0175 -1.52335 -89.097
rradius 23.7056
rwrist 32.7556
rhand -9.18126 -2.05718
rfingers 7.12502
rthumb 16.7719 -31.3528
lclavicle 7.7526e-015 -2.46493e-014
lhumerus -48.73 -3.84649 89.9191
lradius 39.2432
lwrist 33.4643
lhand -15.1712 -16.2974
lfingers 7.12502
lthumb 10.9997 13.3944
rfemur -28.8934 5.225 31.2616
rtibia 27.1985
rfoot -9.89247 8.74259
rtoes -12.9005
lfemur -9.98736 3.81659 -12.1639
ltibia 42.225
lfoot -11.5423 -4.39593
ltoes -43.0851
814
root 1.40558 15.9422 23.1634 15.2231 -20.8577 -7.85911
lowerback -4.65235 0.760047 7.52631
upperback -8.24898 0.894893 0.00464428
thorax -5.93633 -0.0326236 -4.20669
lowerneck 38.4432 -13.1024 -26.8358
upperneck -29.3885 -23.0956 47.07
head -4.48 -16.2979 29.4188
rclavicle -5.30755e-014 -2.38542e-015
rhumerus -35.0908 -0.467864 -90.4068
rradius 24.0445
rwrist 32.1724
rhand -9.40268 -1.97612
rfingers 7.12502
rthumb 16.5588 -31.2896
lclavicle -5.30755e-014 -2.38542e-015
lhumerus -48.165 -4.17384 90.2269
lradius 39.7813
lwrist 33.3775
lhand -15.2992 -16.7316
lfingers 7.12502
lthumb 10.8762 12.9667
rfemur -28.6215 5.14423 31.6124
rtibia 27.3404
rfoot -10.2083 9.23887
rtoes -12.4999
lfemur -10.5959 4.4691 -11.839
ltibia 43.8446
lfoot -10.6747 -5.14149
ltoes -42.112
815
root 1.37718 15.9263 23.1973 15.1877 -21.2402 -8.10436
lowerback -4.47302 0.79712 7.79353
upperback -8.22205 0.958496 0.0276486
thorax -6.00345 -0.0181677 -4.33433
lowerneck 38.3504 -13.0273 -26.9143
upperneck -29.2563 -23.042 47.0244
head -4.44652 -16.2546 29.372
rclavicle 2.127e-014 1.27222e-014
rhumerus -34.1744 0.664135 -91.6959
rradius 24.4224
rwrist 31.5373
rhand -9.58457 -1.89827
rfingers 7.12502
rthumb 16.3837 -31.2263
lclavicle 2.127e-014 1.27222e-014
lhumerus -47.5744 -4.49273 90.5087
lradius 40.268
lwrist 33.2621
lhand -15.4552 -17.161
lfingers 7.12502
lthumb 10.7257 12.5452
rfemur -28.352 5.07265 31.9613
rtibia 27.4968
rfoot -10.5103 9.7282
rtoes -12.0594
lfemur -11.2158 5.11898 -11.5017
ltibia 45.4671
lfoot -9.70151 -5.88798
ltoes -41.0242
